# xmcd
#
# Track frame offsets:
#	150
#	18395
#	35069
#	50197
#	65482
#	81047
#	96734
#	113927
#	131600
#	147167
#	167564
#
# Disc length: 2468 seconds
#
# Revision: 0
# Processed by: cddbd v1.5.2PL0 Copyright (c) Steve Scherf et al.
# Submitted via: EasyCDDAExtractor 11.0.3.1
#
DISCID=a009a20b
DTITLE=Gary Allan - Living Hard
DYEAR=2007
DGENRE=Country
TTITLE0=Watching Airplanes
TTITLE1=We Touched The Sun
TTITLE2=She's So California
TTITLE3=Like It's A Bad Thing
TTITLE4=Learning How To Bend
TTITLE5=As Long As You're Looking Back
TTITLE6=Wrecking Ball
TTITLE7=Yesterday's Rain
TTITLE8=Trying To Matter
TTITLE9=Half Of My Mistakes
TTITLE10=Living Hard
EXTD=
EXTT0=
EXTT1=
EXTT2=
EXTT3=
EXTT4=
EXTT5=
EXTT6=
EXTT7=
EXTT8=
EXTT9=
EXTT10=
PLAYORDER=
